<svg id="logo" data-name="layer" xmlns="http://www.w3.org/2000/svg" viewBox="0 0 1024 720"><defs><style>.cls-1{fill:transparent;}.cls-2{fill:#fff;}</style></defs><title>Mokalogo</title><rect class="cls-1" x="-0.5" width="1080" height="720"/><path class="cls-2" d="M439.49,480.89l-13.11-33.78L423.75,497a.87.87,0,0,1-.87.82H408.05a.86.86,0,0,1-.86-.91l4.18-77.39a.88.88,0,0,1,.87-.83h16.17a.86.86,0,0,1,.79.53l17.26,40,17.26-40a.87.87,0,0,1,.8-.53h16.16a.87.87,0,0,1,.86.83l4.19,77.39a.87.87,0,0,1-.87.91H470a.87.87,0,0,1-.87-.82l-2.63-49.85-13.1,33.78a.86.86,0,0,1-.8.52H440.28A.85.85,0,0,1,439.49,480.89Z"/><path class="cls-2" d="M519.59,438.82a35.49,35.49,0,0,1,10.85,1.6,21.7,21.7,0,0,1,8.67,5.13,24.1,24.1,0,0,1,5.71,9.17,45.58,45.58,0,0,1,0,27.16,24.1,24.1,0,0,1-5.71,9.17,21.7,21.7,0,0,1-8.67,5.13,37.79,37.79,0,0,1-21.76,0,21.79,21.79,0,0,1-8.62-5.13,24.1,24.1,0,0,1-5.71-9.17,39.46,39.46,0,0,1-2.07-13.58,38.66,38.66,0,0,1,2.07-13.42,24.7,24.7,0,0,1,5.71-9.16,22,22,0,0,1,8.62-5.25A34.48,34.48,0,0,1,519.59,438.82Zm0,44.5a9.88,9.88,0,0,0,7.89-3.32q2.85-3.31,2.85-11.7t-2.85-11.76a10.8,10.8,0,0,0-15.78.11q-3,3.48-3,11.65,0,8.38,2.91,11.7A10,10,0,0,0,519.59,483.32Z"/><rect class="cls-2" x="553.44" y="418.65" width="16.67" height="79.13" rx="0.88"/><path class="cls-2" d="M570,468l19.1-27.37a1.05,1.05,0,0,1,.87-.46h16.59a.88.88,0,0,1,.7,1.4L588.33,467.2l21.17,29.19a.88.88,0,0,1-.71,1.39H592.28a1.05,1.05,0,0,1-.86-.44Z"/><path class="cls-2" d="M639.78,459.07q.9,0,2.43.06c1,0,2.16.1,3.45.17-.08-2.94-.82-5-3.14-6.2a17.4,17.4,0,0,0-7.71-1.4,34,34,0,0,0-6,.62,59.71,59.71,0,0,0-6.48,1.6.9.9,0,0,1-1.12-.61L619.68,448c-.23-.83-.55-2-1-3.61-.31-1.17-.54-2.16-.7-2.95a.9.9,0,0,1,.6-1,67.22,67.22,0,0,1,9.92-2.52,54.73,54.73,0,0,1,9.1-.85q12,0,18.52,5.71c4.37,3.8,6.55,10.48,6.55,18.84v32.09a1.32,1.32,0,0,1-1,1.28c-2.7.73-5.77,1.45-9.19,2.16a61.78,61.78,0,0,1-12.43,1.19,51.48,51.48,0,0,1-10.67-1,22.76,22.76,0,0,1-8.25-3.39,15.75,15.75,0,0,1-5.3-6.21,21.25,21.25,0,0,1-1.87-9.38,17.17,17.17,0,0,1,2.32-9.26,17.6,17.6,0,0,1,6-5.94,25.66,25.66,0,0,1,8.25-3.1A47.51,47.51,0,0,1,639.78,459.07Zm5.88,12.43h0a16.32,16.32,0,0,0-2.38-.28c-.83,0-1.54-.06-2.14-.06a17.2,17.2,0,0,0-7.68,1.47,5.21,5.21,0,0,0-2.94,5.08,5.39,5.39,0,0,0,1.08,3.56,6.29,6.29,0,0,0,2.65,1.92,10.9,10.9,0,0,0,3.33.74c1.17.07,2.16.11,3,.11a26,26,0,0,0,5.09-.57Z"/><path class="cls-2" d="M577,234.67a12.42,12.42,0,0,0-10.3-5.44h0a12.44,12.44,0,0,0-10.31,5.44l-21.66,32.06h0l-21.48-31.8a12.79,12.79,0,0,0-7.75-5.41,12.47,12.47,0,0,0-13,5.15L401.57,369.25a12,12,0,0,0,0,13.57,12.65,12.65,0,0,0,10.6,5.42H469.4a12.44,12.44,0,0,0,10.31-5.44l22.37-33.11h0l22.38,33.11a12.47,12.47,0,0,0,20.6,0l22.38-33.11h0l22.37,33.11a12.39,12.39,0,0,0,10.31,5.44h57.21a12.68,12.68,0,0,0,10.61-5.42,12,12,0,0,0,0-13.57ZM523.08,284l-57.45,85H425.06L502.79,254h0l20.28,30Zm64.64,1.06-53,78.39h0l-21-31.08h0l53-78.39h0l21,31.08Zm16.17,84-24.77-36.67h0l20.28-30h0l45.06,66.69H603.89Z"/></svg>